<?xml version="1.0" standalone="no"?>
<!DOCTYPE svg PUBLIC "-//W3C//DTD SVG 20010904//EN"
 "http://www.w3.org/TR/2001/REC-SVG-20010904/DTD/svg10.dtd">
<svg version="1.0" xmlns="http://www.w3.org/2000/svg"
 width="260.000000pt" height="260.000000pt" viewBox="0 0 260.000000 260.000000"
 preserveAspectRatio="xMidYMid meet">
<metadata>
Created by potrace 1.11, written by Peter Selinger 2001-2013
</metadata>
<g transform="translate(0.000000,260.000000) scale(0.100000,-0.100000)"
fill="#000000" stroke="none">
<path d="M1795 1787 c-7 -35 -85 -358 -96 -399 -9 -35 -43 -67 -56 -54 -3 3
-8 25 -10 48 -6 60 -40 126 -74 143 -70 37 -178 1 -210 -69 -28 -62 -25 -100
14 -141 25 -28 44 -38 94 -48 l61 -12 -18 -54 c-19 -58 -53 -99 -87 -106 -28
-5 -82 31 -106 72 -21 36 -23 51 -13 108 30 185 32 204 22 217 -15 20 -50 38
-74 38 -20 0 -20 0 -39 -110 -2 -14 -12 -68 -22 -120 -11 -52 -33 -171 -51
-265 -17 -93 -32 -178 -34 -187 -5 -25 15 -48 47 -53 55 -10 78 23 91 130 2
22 10 70 16 108 l12 67 34 -30 c43 -37 70 -44 142 -37 76 8 129 45 164 117 15
30 29 73 31 94 3 28 10 42 24 47 19 7 19 5 5 -70 -13 -68 -13 -80 1 -113 18
-42 68 -78 110 -78 31 0 77 21 96 44 12 14 17 12 48 -11 49 -38 127 -43 181
-13 l40 22 30 -22 c25 -18 39 -22 77 -18 49 6 78 26 101 69 11 22 11 29 -2 45
-14 18 -15 18 -32 -5 -34 -46 -63 -72 -75 -68 -20 7 -10 96 29 259 40 169 38
189 -18 212 -38 17 -58 11 -58 -16 0 -11 -18 -90 -40 -175 -22 -86 -40 -171
-40 -189 0 -55 -61 -90 -111 -63 -51 27 -54 153 -7 294 33 100 78 129 107 69
15 -32 31 -45 46 -41 34 11 -5 80 -59 106 -41 20 -47 21 -79 8 -96 -41 -170
-194 -161 -339 2 -40 -1 -69 -9 -79 -11 -15 -49 -39 -61 -39 -17 0 1 127 40
289 9 36 17 72 19 80 2 9 15 61 28 116 47 185 44 209 -30 233 -30 10 -33 9
-38 -11z m-295 -318 c6 -11 12 -53 13 -92 2 -66 0 -72 -18 -73 -28 -1 -71 22
-79 41 -12 32 -6 80 14 113 23 37 54 42 70 11z"/>
<path d="M645 1770 c-2 -4 -7 -22 -10 -41 -3 -19 -15 -86 -28 -149 -12 -63
-21 -120 -21 -127 1 -8 -23 -11 -78 -11 l-79 0 5 27 c21 104 36 218 32 237 -6
23 -53 48 -82 42 -12 -2 -19 -14 -21 -38 -2 -19 -10 -69 -18 -110 -8 -41 -17
-90 -20 -109 -8 -46 -12 -51 -40 -51 -24 0 -51 -31 -38 -44 3 -3 17 -6 31 -6
28 0 28 -2 -8 -178 -31 -161 -26 -187 42 -180 36 3 52 26 62 90 9 60 35 210
42 241 5 27 7 27 80 27 41 0 74 -2 74 -4 0 -3 -9 -54 -21 -113 -11 -59 -22
-115 -24 -123 -26 -138 -27 -163 -9 -177 29 -21 79 -16 93 10 12 23 14 32 25
107 4 25 18 104 31 175 42 227 75 423 75 444 0 11 -9 29 -21 40 -22 20 -66 33
-74 21z"/>
<path d="M923 1542 c-42 -6 -109 -78 -148 -158 -32 -64 -39 -91 -43 -154 -6
-99 16 -148 81 -179 118 -57 254 -3 297 119 16 47 23 219 9 261 -12 38 -55 83
-70 73 -6 -3 -18 1 -28 10 -22 20 -68 33 -98 28z m77 -83 c0 -18 5 -21 40 -23
12 -1 15 -19 14 -106 -1 -87 -5 -112 -23 -148 -28 -56 -74 -85 -121 -77 -57
10 -73 38 -66 114 7 69 46 196 73 237 31 47 83 49 83 3z"/>
</g>
</svg>
